<?xml version="1.0" encoding="UTF-8" standalone="no"?>
<!-- Created with Inkscape (http://www.inkscape.org/) -->

<svg
   xmlns:dc="http://purl.org/dc/elements/1.1/"
   xmlns:cc="http://creativecommons.org/ns#"
   xmlns:rdf="http://www.w3.org/1999/02/22-rdf-syntax-ns#"
   xmlns:svg="http://www.w3.org/2000/svg"
   xmlns="http://www.w3.org/2000/svg"
   xmlns:sodipodi="http://sodipodi.sourceforge.net/DTD/sodipodi-0.dtd"
   xmlns:inkscape="http://www.inkscape.org/namespaces/inkscape"
   version="1.1"
   id="svg2"
   xml:space="preserve"
   width="148.37334"
   height="57.066399"
   viewBox="0 0 148.37334 57.066399"
   sodipodi:docname="logo.svg"
   inkscape:version="0.92.1 r15371"><metadata
     id="metadata8"><rdf:RDF><cc:Work
         rdf:about=""><dc:format>image/svg+xml</dc:format><dc:type
           rdf:resource="http://purl.org/dc/dcmitype/StillImage" /><dc:title></dc:title></cc:Work></rdf:RDF></metadata><defs
     id="defs6" /><sodipodi:namedview
     pagecolor="#ffffff"
     bordercolor="#666666"
     borderopacity="1"
     objecttolerance="10"
     gridtolerance="10"
     guidetolerance="10"
     inkscape:pageopacity="0"
     inkscape:pageshadow="2"
     inkscape:window-width="1099"
     inkscape:window-height="612"
     id="namedview4"
     showgrid="false"
     inkscape:zoom="2.5678468"
     inkscape:cx="74.186668"
     inkscape:cy="28.533199"
     inkscape:window-x="238"
     inkscape:window-y="261"
     inkscape:window-maximized="0"
     inkscape:current-layer="g10" /><g
     id="g10"
     inkscape:groupmode="layer"
     inkscape:label="Vector Smart Object"
     transform="matrix(1.3333333,0,0,-1.3333333,0,57.0664)"><g
       id="g12"
       transform="translate(68.4797,25.6799)"><path
         d="M 0,0 -8.56,8.56 -17.12,0 0,-17.12 17.12,0 8.56,8.56 Z"
         style="fill:#ff525f;fill-opacity:1;fill-rule:nonzero;stroke:none"
         id="path14"
         inkscape:connector-curvature="0" /></g><g
       id="g16"
       transform="translate(34.2396,25.6797)"><path
         d="M 0,0 -8.56,8.56 -17.12,0 -25.68,8.56 -34.24,0 -17.12,-17.12 -8.56,-8.56 0,-17.12 17.12,0 8.56,8.56 Z"
         style="fill:#ffffff;fill-opacity:1;fill-rule:nonzero;stroke:none"
         id="path18"
         inkscape:connector-curvature="0" /></g><g
       id="g20"
       transform="translate(102.7197,42.7995)"><path
         d="m 0,0 -8.56,-8.56 -8.56,-8.56 8.56,-8.56 -8.56,-8.56 8.56,-8.559 8.56,8.559 8.56,8.56 -8.56,8.56 8.56,8.56 z"
         style="fill:#ffffff;fill-opacity:1;fill-rule:nonzero;stroke:none"
         id="path22"
         inkscape:connector-curvature="0" /></g></g></svg>