<?xml version="1.0" encoding="UTF-8" standalone="no"?>
<!-- Created with Inkscape (http://www.inkscape.org/) -->

<svg
   xmlns:dc="http://purl.org/dc/elements/1.1/"
   xmlns:cc="http://creativecommons.org/ns#"
   xmlns:rdf="http://www.w3.org/1999/02/22-rdf-syntax-ns#"
   xmlns:svg="http://www.w3.org/2000/svg"
   xmlns="http://www.w3.org/2000/svg"
   xmlns:sodipodi="http://sodipodi.sourceforge.net/DTD/sodipodi-0.dtd"
   xmlns:inkscape="http://www.inkscape.org/namespaces/inkscape"
   version="1.1"
   id="svg2"
   xml:space="preserve"
   width="76.14827"
   height="45.653198"
   viewBox="0 0 76.14827 45.653198"
   sodipodi:docname="logo-f.svg"
   inkscape:version="0.92.1 r15371"><metadata
     id="metadata8"><rdf:RDF><cc:Work
         rdf:about=""><dc:format>image/svg+xml</dc:format><dc:type
           rdf:resource="http://purl.org/dc/dcmitype/StillImage" /><dc:title></dc:title></cc:Work></rdf:RDF></metadata><defs
     id="defs6"><clipPath
       clipPathUnits="userSpaceOnUse"
       id="clipPath26"><path
         d="M 0,34.24 H 57.111 V 0 H 0 Z"
         id="path24"
         inkscape:connector-curvature="0" /></clipPath></defs><sodipodi:namedview
     pagecolor="#ffffff"
     bordercolor="#666666"
     borderopacity="1"
     objecttolerance="10"
     gridtolerance="10"
     guidetolerance="10"
     inkscape:pageopacity="0"
     inkscape:pageshadow="2"
     inkscape:window-width="981"
     inkscape:window-height="644"
     id="namedview4"
     showgrid="false"
     inkscape:zoom="5.0953226"
     inkscape:cx="38.074135"
     inkscape:cy="22.826599"
     inkscape:window-x="0"
     inkscape:window-y="0"
     inkscape:window-maximized="0"
     inkscape:current-layer="g22" /><g
     id="g10"
     inkscape:groupmode="layer"
     inkscape:label="Vector Smart Object1"
     transform="matrix(1.3333333,0,0,-1.3333333,0,45.6532)"><g
       id="g12"
       transform="translate(21.4002,34.2396)"><path
         d="M 0,0 -4.28,-4.279 -8.56,0 -12.84,-4.279 -17.12,0 l -4.28,-4.279 8.56,-8.56 4.28,4.279 4.28,-4.279 8.559,8.56 z"
         style="fill:#231f20;fill-opacity:1;fill-rule:nonzero;stroke:none"
         id="path14"
         inkscape:connector-curvature="0" /></g><g
       id="g16"
       transform="translate(25.6799,21.3999)"><path
         d="M 0,0 -4.297,-4.297 0,-8.594 4.297,-4.297 Z"
         style="fill:#231f20;fill-opacity:1;fill-rule:nonzero;stroke:none"
         id="path18"
         inkscape:connector-curvature="0" /></g><g
       id="g20"><g
         id="g22"
         clip-path="url(#clipPath26)"><g
           aria-label="agency"
           transform="matrix(1,0,0,-1,30.9688,14.4468)"
           style="font-variant:normal;font-weight:normal;font-stretch:normal;font-size:8.15450001px;font-family:Ubuntu;-inkscape-font-specification:Ubuntu;writing-mode:lr-tb;fill:#231f20;fill-opacity:1;fill-rule:nonzero;stroke:none"
           id="text30"><path
             d="m 2.795146,-2.2416912 q -0.8879168,0 -1.230342,0.2030662 -0.3424253,0.2030662 -0.3424253,0.692814 0,0.39020553 0.2548281,0.62114352 0.2588098,0.2269563 0.7007773,0.2269563 0.6091985,0 0.9755139,-0.43002246 0.3702972,-0.43400416 0.3702972,-1.15070826 v -0.1632493 z m 1.46128,-0.3026084 V 0 H 3.5237952 V -0.67688721 Q 3.2729487,-0.27075488 2.8986699,-0.0756521 2.5243911,0.11546899 1.9828813,0.11546899 q -0.6848505,0 -1.09098286,-0.38224218 Q 0.4897478,-0.65299707 0.4897478,-1.2980308 q 0,-0.7525393 0.50169287,-1.1347815 0.50567453,-0.3822421 1.50507863,-0.3822421 h 1.0272759 v -0.07167 q 0,-0.5056745 -0.3344619,-0.7804111 -0.3304803,-0.2787183 -0.9317154,-0.2787183 -0.3822422,0 -0.7445759,0.091579 -0.3623337,0.091579 -0.69679566,0.2747366 V -4.256426 Q 1.218397,-4.4117119 1.5966575,-4.487364 1.974918,-4.5669978 2.33327,-4.5669978 q 0.9675506,0 1.4453533,0.5016929 0.4778027,0.5016928 0.4778027,1.5210053 z"
             style=""
             id="path4515" /><path
             d="m 7.9596202,-2.2815081 q 0,-0.7963379 -0.3304802,-1.2343237 -0.3264985,-0.4379858 -0.9197703,-0.4379858 -0.58929,0 -0.9197702,0.4379858 -0.3264986,0.4379858 -0.3264986,1.2343237 0,0.7923562 0.3264986,1.2303421 0.3304802,0.43798582 0.9197702,0.43798582 0.5932718,0 0.9197703,-0.43798582 0.3304802,-0.4379859 0.3304802,-1.2303421 z m 0.7326309,1.72805327 q 0,1.13876318 -0.5056746,1.69221803 -0.5056745,0.5574365 -1.5488772,0.5574365 -0.3862239,0 -0.7286492,-0.059725 Q 5.5666248,1.5807307 5.244108,1.46128 V 0.74855762 q 0.3225168,0.17519433 0.6370703,0.25880978 0.3145535,0.083616 0.641052,0.083616 0.7206858,0 1.0790379,-0.37826049 0.358352,-0.37427881 0.358352,-1.13478149 V -0.78439282 Q 7.7326639,-0.39020557 7.3782936,-0.19510278 7.0239232,0 6.5301937,0 5.7099657,0 5.2082728,-0.62512524 4.7065799,-1.2502505 4.7065799,-2.2815081 q 0,-1.0352392 0.5016929,-1.6603645 0.5016929,-0.6251252 1.3219209,-0.6251252 0.4937295,0 0.8480999,0.1951028 0.3543703,0.1951028 0.5813266,0.58929 v -0.6768872 h 0.7326309 z"
             style=""
             id="path4517" /><path
             d="m 13.552874,-2.4129038 v 0.358352 h -3.368509 q 0.04778,0.756521 0.453913,1.15468998 0.410114,0.39418726 1.138763,0.39418726 0.422059,0 0.816246,-0.10352393 0.398169,-0.10352392 0.788375,-0.31057177 v 0.69281396 q -0.394188,0.16723096 -0.808283,0.25482813 -0.414096,0.08759716 -0.840137,0.08759716 -1.067093,0 -1.692218,-0.62114355 -0.6211434,-0.62114354 -0.6211434,-1.68027294 0,-1.0949646 0.5892904,-1.7360166 0.593271,-0.6450337 1.596657,-0.6450337 0.899862,0 1.421463,0.5813267 0.525583,0.5773449 0.525583,1.5727673 z M 12.820243,-2.627915 q -0.008,-0.6012351 -0.338443,-0.9595872 -0.326499,-0.3583521 -0.868008,-0.3583521 -0.613181,0 -0.983478,0.346407 -0.366315,0.346407 -0.422059,0.9755139 z"
             style=""
             id="path4519" /><path
             d="M 18.003734,-2.6916221 V 0 h -0.73263 v -2.6677319 q 0,-0.6330887 -0.246865,-0.9476421 -0.246865,-0.3145535 -0.740594,-0.3145535 -0.593272,0 -0.935697,0.3782605 -0.342426,0.3782605 -0.342426,1.0312576 V 0 H 14.26891 v -4.4594922 h 0.736612 v 0.692814 q 0.262792,-0.4021507 0.617162,-0.6012351 0.358352,-0.1990845 0.82421,-0.1990845 0.768466,0 1.162653,0.4778027 0.394187,0.4738211 0.394187,1.397573 z"
             style=""
             id="path4521" /><path
             d="m 22.186705,-4.2882795 v 0.6848505 q -0.310571,-0.1712126 -0.625125,-0.2548281 -0.310572,-0.087597 -0.629107,-0.087597 -0.712722,0 -1.106909,0.4539126 -0.394188,0.449931 -0.394188,1.2661773 0,0.8162463 0.394188,1.27015893 0.394187,0.44993091 1.106909,0.44993091 0.318535,0 0.629107,-0.0836155 0.314554,-0.0875972 0.625125,-0.25880981 v 0.6768872 q -0.30659,0.14334082 -0.63707,0.21501123 -0.326498,0.07167041 -0.696795,0.07167041 -1.007368,0 -1.60064,-0.63308862 -0.593271,-0.63308867 -0.593271,-1.70814477 0,-1.0909829 0.597253,-1.7161082 0.601235,-0.6251252 1.644438,-0.6251252 0.338443,0 0.66096,0.07167 0.322517,0.067689 0.625125,0.2070479 z"
             style=""
             id="path4523" /><path
             d="m 24.713659,0.4140957 q -0.310572,0.7963379 -0.605217,1.039221 -0.294645,0.242883 -0.788374,0.242883 H 22.734759 V 1.0830195 h 0.430023 q 0.302608,0 0.469839,-0.14334079 0.167231,-0.14334082 0.370297,-0.67688721 l 0.131396,-0.33446191 -1.803705,-4.38782179 h 0.776429 l 1.393591,3.48795997 1.393592,-3.48795997 h 0.776429 z"
             style=""
             id="path4525" /></g></g></g><g
       id="g32"
       transform="translate(8.5599,21.4128)"><path
         d="M 0,0 -4.28,4.28 -8.56,0 0,-8.56 8.56,0 4.28,4.28 Z"
         style="fill:#ff525f;fill-opacity:1;fill-rule:nonzero;stroke:none"
         id="path34"
         inkscape:connector-curvature="0" /></g><g
       id="g36"
       transform="translate(12.8403,17.1198)"><path
         d="M 0,0 -4.28,-4.279 0,-8.56 -4.28,-12.839 0,-17.12 4.279,-12.839 8.56,-8.56 4.279,-4.279 8.56,0 4.279,4.28 Z"
         style="fill:#231f20;fill-opacity:1;fill-rule:nonzero;stroke:none"
         id="path38"
         inkscape:connector-curvature="0" /></g></g></svg>